<mxfile host="app.diagrams.net" modified="2020-11-18T15:03:31.477Z" agent="5.0 (Macintosh; Intel Mac OS X 10_15_7) AppleWebKit/605.1.15 (KHTML, like Gecko) Version/14.0.1 Safari/605.1.15" etag="FEQo9MhAaat_idIQZ7sJ" version="13.9.9" type="github">
  <diagram id="0T8XoN0HN1SLvGZKCrri" name="第 1 页">
    <mxGraphModel dx="1188" dy="702" grid="1" gridSize="10" guides="1" tooltips="1" connect="1" arrows="1" fold="1" page="1" pageScale="1" pageWidth="827" pageHeight="1169" math="0" shadow="0">
      <root>
        <mxCell id="0" />
        <mxCell id="1" parent="0" />
        <mxCell id="IfH8KStKm8wJUKgaHO1_-1" value="" style="rounded=1;whiteSpace=wrap;html=1;fontFamily=Comic Sans MS;fontSize=16;fillColor=#f9f7ed;shadow=1;strokeColor=none;" vertex="1" parent="1">
          <mxGeometry x="150" y="430" width="140" height="290" as="geometry" />
        </mxCell>
        <mxCell id="IfH8KStKm8wJUKgaHO1_-44" style="edgeStyle=orthogonalEdgeStyle;rounded=0;orthogonalLoop=1;jettySize=auto;html=1;entryX=0;entryY=0.69;entryDx=0;entryDy=0;entryPerimeter=0;" edge="1" parent="1" source="IfH8KStKm8wJUKgaHO1_-2" target="IfH8KStKm8wJUKgaHO1_-38">
          <mxGeometry relative="1" as="geometry" />
        </mxCell>
        <mxCell id="IfH8KStKm8wJUKgaHO1_-2" value="parent" style="rounded=0;whiteSpace=wrap;html=1;fontSize=16;fontFamily=Comic Sans MS;fillColor=#cce5ff;strokeColor=none;" vertex="1" parent="1">
          <mxGeometry x="160" y="470" width="120" height="45" as="geometry" />
        </mxCell>
        <mxCell id="IfH8KStKm8wJUKgaHO1_-45" style="edgeStyle=orthogonalEdgeStyle;rounded=0;orthogonalLoop=1;jettySize=auto;html=1;" edge="1" parent="1" source="IfH8KStKm8wJUKgaHO1_-3">
          <mxGeometry relative="1" as="geometry">
            <mxPoint x="379" y="290" as="targetPoint" />
            <Array as="points">
              <mxPoint x="340" y="553" />
              <mxPoint x="340" y="290" />
            </Array>
          </mxGeometry>
        </mxCell>
        <mxCell id="IfH8KStKm8wJUKgaHO1_-3" value="read_parent" style="rounded=0;whiteSpace=wrap;html=1;fontSize=16;fontFamily=Comic Sans MS;fillColor=#ffcc99;strokeColor=none;" vertex="1" parent="1">
          <mxGeometry x="160" y="530" width="120" height="45" as="geometry" />
        </mxCell>
        <mxCell id="IfH8KStKm8wJUKgaHO1_-5" value="task_struct" style="text;html=1;align=center;verticalAlign=middle;resizable=0;points=[];autosize=1;fontSize=16;fontFamily=Comic Sans MS;" vertex="1" parent="1">
          <mxGeometry x="170" y="420" width="100" height="20" as="geometry" />
        </mxCell>
        <mxCell id="IfH8KStKm8wJUKgaHO1_-6" value="children" style="rounded=0;whiteSpace=wrap;html=1;fontSize=16;fontFamily=Comic Sans MS;fillColor=#cdeb8b;strokeColor=none;" vertex="1" parent="1">
          <mxGeometry x="160" y="590" width="120" height="45" as="geometry" />
        </mxCell>
        <mxCell id="IfH8KStKm8wJUKgaHO1_-51" style="edgeStyle=orthogonalEdgeStyle;rounded=0;orthogonalLoop=1;jettySize=auto;html=1;entryX=0;entryY=0.5;entryDx=0;entryDy=0;startArrow=classic;startFill=1;" edge="1" parent="1" source="IfH8KStKm8wJUKgaHO1_-7" target="IfH8KStKm8wJUKgaHO1_-31">
          <mxGeometry relative="1" as="geometry" />
        </mxCell>
        <mxCell id="IfH8KStKm8wJUKgaHO1_-7" value="sibling" style="rounded=0;whiteSpace=wrap;html=1;fontSize=16;fontFamily=Comic Sans MS;fillColor=#ffcccc;strokeColor=none;" vertex="1" parent="1">
          <mxGeometry x="160" y="650" width="120" height="45" as="geometry" />
        </mxCell>
        <mxCell id="IfH8KStKm8wJUKgaHO1_-26" value="" style="rounded=1;whiteSpace=wrap;html=1;fontFamily=Comic Sans MS;fontSize=16;fillColor=#f9f7ed;shadow=1;strokeColor=none;" vertex="1" parent="1">
          <mxGeometry x="380" y="430" width="140" height="290" as="geometry" />
        </mxCell>
        <mxCell id="IfH8KStKm8wJUKgaHO1_-70" style="edgeStyle=orthogonalEdgeStyle;rounded=0;orthogonalLoop=1;jettySize=auto;html=1;entryX=0.5;entryY=1;entryDx=0;entryDy=0;startArrow=none;startFill=0;exitX=1;exitY=0.5;exitDx=0;exitDy=0;" edge="1" parent="1" source="IfH8KStKm8wJUKgaHO1_-27" target="IfH8KStKm8wJUKgaHO1_-38">
          <mxGeometry relative="1" as="geometry">
            <Array as="points">
              <mxPoint x="530" y="493" />
              <mxPoint x="530" y="410" />
              <mxPoint x="450" y="410" />
            </Array>
          </mxGeometry>
        </mxCell>
        <mxCell id="IfH8KStKm8wJUKgaHO1_-27" value="parent" style="rounded=0;whiteSpace=wrap;html=1;fontSize=16;fontFamily=Comic Sans MS;fillColor=#cce5ff;strokeColor=none;" vertex="1" parent="1">
          <mxGeometry x="390" y="470" width="120" height="45" as="geometry" />
        </mxCell>
        <mxCell id="IfH8KStKm8wJUKgaHO1_-71" style="edgeStyle=orthogonalEdgeStyle;rounded=0;orthogonalLoop=1;jettySize=auto;html=1;entryX=0.75;entryY=1;entryDx=0;entryDy=0;startArrow=none;startFill=0;exitX=1;exitY=0.5;exitDx=0;exitDy=0;" edge="1" parent="1" source="IfH8KStKm8wJUKgaHO1_-28" target="IfH8KStKm8wJUKgaHO1_-38">
          <mxGeometry relative="1" as="geometry">
            <Array as="points">
              <mxPoint x="530" y="553" />
              <mxPoint x="530" y="410" />
              <mxPoint x="485" y="410" />
            </Array>
          </mxGeometry>
        </mxCell>
        <mxCell id="IfH8KStKm8wJUKgaHO1_-28" value="read_parent" style="rounded=0;whiteSpace=wrap;html=1;fontSize=16;fontFamily=Comic Sans MS;fillColor=#ffcc99;strokeColor=none;" vertex="1" parent="1">
          <mxGeometry x="390" y="530" width="120" height="45" as="geometry" />
        </mxCell>
        <mxCell id="IfH8KStKm8wJUKgaHO1_-29" value="task_struct" style="text;html=1;align=center;verticalAlign=middle;resizable=0;points=[];autosize=1;fontSize=16;fontFamily=Comic Sans MS;" vertex="1" parent="1">
          <mxGeometry x="400" y="420" width="100" height="20" as="geometry" />
        </mxCell>
        <mxCell id="IfH8KStKm8wJUKgaHO1_-63" style="edgeStyle=orthogonalEdgeStyle;rounded=0;orthogonalLoop=1;jettySize=auto;html=1;startArrow=classic;startFill=1;entryX=0;entryY=0.5;entryDx=0;entryDy=0;" edge="1" parent="1" source="IfH8KStKm8wJUKgaHO1_-30" target="IfH8KStKm8wJUKgaHO1_-53">
          <mxGeometry relative="1" as="geometry">
            <mxPoint x="370" y="940" as="targetPoint" />
            <Array as="points">
              <mxPoint x="360" y="613" />
              <mxPoint x="360" y="935" />
            </Array>
          </mxGeometry>
        </mxCell>
        <mxCell id="IfH8KStKm8wJUKgaHO1_-64" style="edgeStyle=orthogonalEdgeStyle;rounded=0;orthogonalLoop=1;jettySize=auto;html=1;entryX=1;entryY=0.5;entryDx=0;entryDy=0;startArrow=classic;startFill=1;exitX=1;exitY=0.5;exitDx=0;exitDy=0;" edge="1" parent="1" source="IfH8KStKm8wJUKgaHO1_-30" target="IfH8KStKm8wJUKgaHO1_-53">
          <mxGeometry relative="1" as="geometry" />
        </mxCell>
        <mxCell id="IfH8KStKm8wJUKgaHO1_-30" value="children" style="rounded=0;whiteSpace=wrap;html=1;fontSize=16;fontFamily=Comic Sans MS;fillColor=#cdeb8b;strokeColor=none;" vertex="1" parent="1">
          <mxGeometry x="390" y="590" width="120" height="45" as="geometry" />
        </mxCell>
        <mxCell id="IfH8KStKm8wJUKgaHO1_-31" value="sibling" style="rounded=0;whiteSpace=wrap;html=1;fontSize=16;fontFamily=Comic Sans MS;fillColor=#ffcccc;strokeColor=none;" vertex="1" parent="1">
          <mxGeometry x="390" y="650" width="120" height="45" as="geometry" />
        </mxCell>
        <mxCell id="IfH8KStKm8wJUKgaHO1_-32" value="" style="rounded=1;whiteSpace=wrap;html=1;fontFamily=Comic Sans MS;fontSize=16;fillColor=#f9f7ed;shadow=1;strokeColor=none;" vertex="1" parent="1">
          <mxGeometry x="600" y="430" width="140" height="290" as="geometry" />
        </mxCell>
        <mxCell id="IfH8KStKm8wJUKgaHO1_-72" style="edgeStyle=orthogonalEdgeStyle;rounded=0;orthogonalLoop=1;jettySize=auto;html=1;startArrow=none;startFill=0;" edge="1" parent="1" source="IfH8KStKm8wJUKgaHO1_-33">
          <mxGeometry relative="1" as="geometry">
            <mxPoint x="520" y="280" as="targetPoint" />
            <Array as="points">
              <mxPoint x="580" y="493" />
              <mxPoint x="580" y="280" />
            </Array>
          </mxGeometry>
        </mxCell>
        <mxCell id="IfH8KStKm8wJUKgaHO1_-33" value="parent" style="rounded=0;whiteSpace=wrap;html=1;fontSize=16;fontFamily=Comic Sans MS;fillColor=#cce5ff;strokeColor=none;" vertex="1" parent="1">
          <mxGeometry x="610" y="470" width="120" height="45" as="geometry" />
        </mxCell>
        <mxCell id="IfH8KStKm8wJUKgaHO1_-73" style="edgeStyle=orthogonalEdgeStyle;rounded=0;orthogonalLoop=1;jettySize=auto;html=1;startArrow=none;startFill=0;entryX=1.014;entryY=0.769;entryDx=0;entryDy=0;entryPerimeter=0;" edge="1" parent="1" source="IfH8KStKm8wJUKgaHO1_-34" target="IfH8KStKm8wJUKgaHO1_-38">
          <mxGeometry relative="1" as="geometry">
            <mxPoint x="524" y="330" as="targetPoint" />
            <Array as="points">
              <mxPoint x="565" y="553" />
              <mxPoint x="565" y="293" />
            </Array>
          </mxGeometry>
        </mxCell>
        <mxCell id="IfH8KStKm8wJUKgaHO1_-34" value="read_parent" style="rounded=0;whiteSpace=wrap;html=1;fontSize=16;fontFamily=Comic Sans MS;fillColor=#ffcc99;strokeColor=none;" vertex="1" parent="1">
          <mxGeometry x="610" y="530" width="120" height="45" as="geometry" />
        </mxCell>
        <mxCell id="IfH8KStKm8wJUKgaHO1_-35" value="task_struct" style="text;html=1;align=center;verticalAlign=middle;resizable=0;points=[];autosize=1;fontSize=16;fontFamily=Comic Sans MS;" vertex="1" parent="1">
          <mxGeometry x="620" y="420" width="100" height="20" as="geometry" />
        </mxCell>
        <mxCell id="IfH8KStKm8wJUKgaHO1_-36" value="children" style="rounded=0;whiteSpace=wrap;html=1;fontSize=16;fontFamily=Comic Sans MS;fillColor=#cdeb8b;strokeColor=none;" vertex="1" parent="1">
          <mxGeometry x="610" y="590" width="120" height="45" as="geometry" />
        </mxCell>
        <mxCell id="IfH8KStKm8wJUKgaHO1_-37" value="sibling" style="rounded=0;whiteSpace=wrap;html=1;fontSize=16;fontFamily=Comic Sans MS;fillColor=#ffcccc;strokeColor=none;" vertex="1" parent="1">
          <mxGeometry x="610" y="650" width="120" height="45" as="geometry" />
        </mxCell>
        <mxCell id="IfH8KStKm8wJUKgaHO1_-38" value="" style="rounded=1;whiteSpace=wrap;html=1;fontFamily=Comic Sans MS;fontSize=16;fillColor=#f9f7ed;shadow=1;strokeColor=none;" vertex="1" parent="1">
          <mxGeometry x="380" y="70" width="140" height="290" as="geometry" />
        </mxCell>
        <mxCell id="IfH8KStKm8wJUKgaHO1_-74" style="edgeStyle=orthogonalEdgeStyle;rounded=0;orthogonalLoop=1;jettySize=auto;html=1;startArrow=none;startFill=0;" edge="1" parent="1" source="IfH8KStKm8wJUKgaHO1_-39">
          <mxGeometry relative="1" as="geometry">
            <mxPoint x="550" y="80" as="targetPoint" />
          </mxGeometry>
        </mxCell>
        <mxCell id="IfH8KStKm8wJUKgaHO1_-39" value="parent" style="rounded=0;whiteSpace=wrap;html=1;fontSize=16;fontFamily=Comic Sans MS;fillColor=#cce5ff;strokeColor=none;" vertex="1" parent="1">
          <mxGeometry x="390" y="110" width="120" height="45" as="geometry" />
        </mxCell>
        <mxCell id="IfH8KStKm8wJUKgaHO1_-75" style="edgeStyle=orthogonalEdgeStyle;rounded=0;orthogonalLoop=1;jettySize=auto;html=1;startArrow=none;startFill=0;" edge="1" parent="1" source="IfH8KStKm8wJUKgaHO1_-40">
          <mxGeometry relative="1" as="geometry">
            <mxPoint x="570" y="80" as="targetPoint" />
          </mxGeometry>
        </mxCell>
        <mxCell id="IfH8KStKm8wJUKgaHO1_-40" value="read_parent" style="rounded=0;whiteSpace=wrap;html=1;fontSize=16;fontFamily=Comic Sans MS;fillColor=#ffcc99;strokeColor=none;" vertex="1" parent="1">
          <mxGeometry x="390" y="170" width="120" height="45" as="geometry" />
        </mxCell>
        <mxCell id="IfH8KStKm8wJUKgaHO1_-41" value="task_struct" style="text;html=1;align=center;verticalAlign=middle;resizable=0;points=[];autosize=1;fontSize=16;fontFamily=Comic Sans MS;" vertex="1" parent="1">
          <mxGeometry x="400" y="60" width="100" height="20" as="geometry" />
        </mxCell>
        <mxCell id="IfH8KStKm8wJUKgaHO1_-46" style="edgeStyle=orthogonalEdgeStyle;rounded=0;orthogonalLoop=1;jettySize=auto;html=1;entryX=0;entryY=0.5;entryDx=0;entryDy=0;" edge="1" parent="1" source="IfH8KStKm8wJUKgaHO1_-42" target="IfH8KStKm8wJUKgaHO1_-1">
          <mxGeometry relative="1" as="geometry" />
        </mxCell>
        <mxCell id="IfH8KStKm8wJUKgaHO1_-47" style="edgeStyle=orthogonalEdgeStyle;rounded=0;orthogonalLoop=1;jettySize=auto;html=1;entryX=1;entryY=0.5;entryDx=0;entryDy=0;" edge="1" parent="1" source="IfH8KStKm8wJUKgaHO1_-42" target="IfH8KStKm8wJUKgaHO1_-32">
          <mxGeometry relative="1" as="geometry" />
        </mxCell>
        <mxCell id="IfH8KStKm8wJUKgaHO1_-42" value="children" style="rounded=0;whiteSpace=wrap;html=1;fontSize=16;fontFamily=Comic Sans MS;fillColor=#cdeb8b;strokeColor=none;" vertex="1" parent="1">
          <mxGeometry x="390" y="230" width="120" height="45" as="geometry" />
        </mxCell>
        <mxCell id="IfH8KStKm8wJUKgaHO1_-43" value="sibling" style="rounded=0;whiteSpace=wrap;html=1;fontSize=16;fontFamily=Comic Sans MS;fillColor=#ffcccc;strokeColor=none;" vertex="1" parent="1">
          <mxGeometry x="390" y="290" width="120" height="45" as="geometry" />
        </mxCell>
        <mxCell id="IfH8KStKm8wJUKgaHO1_-48" style="edgeStyle=orthogonalEdgeStyle;rounded=0;orthogonalLoop=1;jettySize=auto;html=1;entryX=0;entryY=0.5;entryDx=0;entryDy=0;exitX=1;exitY=0.5;exitDx=0;exitDy=0;startArrow=classic;startFill=1;" edge="1" parent="1" source="IfH8KStKm8wJUKgaHO1_-6" target="IfH8KStKm8wJUKgaHO1_-6">
          <mxGeometry relative="1" as="geometry">
            <Array as="points">
              <mxPoint x="300" y="613" />
              <mxPoint x="300" y="640" />
              <mxPoint x="140" y="640" />
              <mxPoint x="140" y="613" />
            </Array>
          </mxGeometry>
        </mxCell>
        <mxCell id="IfH8KStKm8wJUKgaHO1_-50" style="edgeStyle=orthogonalEdgeStyle;rounded=0;orthogonalLoop=1;jettySize=auto;html=1;entryX=0;entryY=0.5;entryDx=0;entryDy=0;exitX=1;exitY=0.5;exitDx=0;exitDy=0;startArrow=classic;startFill=1;" edge="1" parent="1" source="IfH8KStKm8wJUKgaHO1_-37">
          <mxGeometry relative="1" as="geometry">
            <mxPoint x="280" y="670" as="sourcePoint" />
            <mxPoint x="160" y="670" as="targetPoint" />
            <Array as="points">
              <mxPoint x="750" y="673" />
              <mxPoint x="750" y="710" />
              <mxPoint x="140" y="710" />
              <mxPoint x="140" y="670" />
            </Array>
          </mxGeometry>
        </mxCell>
        <mxCell id="IfH8KStKm8wJUKgaHO1_-52" style="edgeStyle=orthogonalEdgeStyle;rounded=0;orthogonalLoop=1;jettySize=auto;html=1;startArrow=classic;startFill=1;" edge="1" parent="1" source="IfH8KStKm8wJUKgaHO1_-31" target="IfH8KStKm8wJUKgaHO1_-37">
          <mxGeometry relative="1" as="geometry" />
        </mxCell>
        <mxCell id="IfH8KStKm8wJUKgaHO1_-53" value="" style="rounded=1;whiteSpace=wrap;html=1;fontFamily=Comic Sans MS;fontSize=16;fillColor=#f9f7ed;shadow=1;strokeColor=none;" vertex="1" parent="1">
          <mxGeometry x="380" y="790" width="140" height="290" as="geometry" />
        </mxCell>
        <mxCell id="IfH8KStKm8wJUKgaHO1_-65" style="edgeStyle=orthogonalEdgeStyle;rounded=0;orthogonalLoop=1;jettySize=auto;html=1;entryX=0.5;entryY=1;entryDx=0;entryDy=0;startArrow=none;startFill=0;exitX=1;exitY=0.5;exitDx=0;exitDy=0;" edge="1" parent="1" source="IfH8KStKm8wJUKgaHO1_-54" target="IfH8KStKm8wJUKgaHO1_-26">
          <mxGeometry relative="1" as="geometry">
            <Array as="points">
              <mxPoint x="530" y="853" />
              <mxPoint x="530" y="770" />
              <mxPoint x="450" y="770" />
            </Array>
          </mxGeometry>
        </mxCell>
        <mxCell id="IfH8KStKm8wJUKgaHO1_-54" value="parent" style="rounded=0;whiteSpace=wrap;html=1;fontSize=16;fontFamily=Comic Sans MS;fillColor=#cce5ff;strokeColor=none;" vertex="1" parent="1">
          <mxGeometry x="390" y="830" width="120" height="45" as="geometry" />
        </mxCell>
        <mxCell id="IfH8KStKm8wJUKgaHO1_-69" style="edgeStyle=orthogonalEdgeStyle;rounded=0;orthogonalLoop=1;jettySize=auto;html=1;entryX=0.75;entryY=1;entryDx=0;entryDy=0;startArrow=none;startFill=0;exitX=1;exitY=0.5;exitDx=0;exitDy=0;" edge="1" parent="1" source="IfH8KStKm8wJUKgaHO1_-55" target="IfH8KStKm8wJUKgaHO1_-26">
          <mxGeometry relative="1" as="geometry">
            <Array as="points">
              <mxPoint x="530" y="913" />
              <mxPoint x="530" y="770" />
              <mxPoint x="485" y="770" />
            </Array>
          </mxGeometry>
        </mxCell>
        <mxCell id="IfH8KStKm8wJUKgaHO1_-55" value="read_parent" style="rounded=0;whiteSpace=wrap;html=1;fontSize=16;fontFamily=Comic Sans MS;fillColor=#ffcc99;strokeColor=none;" vertex="1" parent="1">
          <mxGeometry x="390" y="890" width="120" height="45" as="geometry" />
        </mxCell>
        <mxCell id="IfH8KStKm8wJUKgaHO1_-56" value="task_struct" style="text;html=1;align=center;verticalAlign=middle;resizable=0;points=[];autosize=1;fontSize=16;fontFamily=Comic Sans MS;" vertex="1" parent="1">
          <mxGeometry x="400" y="780" width="100" height="20" as="geometry" />
        </mxCell>
        <mxCell id="IfH8KStKm8wJUKgaHO1_-57" value="children" style="rounded=0;whiteSpace=wrap;html=1;fontSize=16;fontFamily=Comic Sans MS;fillColor=#cdeb8b;strokeColor=none;" vertex="1" parent="1">
          <mxGeometry x="390" y="950" width="120" height="45" as="geometry" />
        </mxCell>
        <mxCell id="IfH8KStKm8wJUKgaHO1_-58" value="sibling" style="rounded=0;whiteSpace=wrap;html=1;fontSize=16;fontFamily=Comic Sans MS;fillColor=#ffcccc;strokeColor=none;" vertex="1" parent="1">
          <mxGeometry x="390" y="1010" width="120" height="45" as="geometry" />
        </mxCell>
        <mxCell id="IfH8KStKm8wJUKgaHO1_-59" style="edgeStyle=orthogonalEdgeStyle;rounded=0;orthogonalLoop=1;jettySize=auto;html=1;entryX=0;entryY=0.5;entryDx=0;entryDy=0;exitX=1;exitY=0.5;exitDx=0;exitDy=0;startArrow=classic;startFill=1;" edge="1" parent="1">
          <mxGeometry relative="1" as="geometry">
            <mxPoint x="730" y="610" as="sourcePoint" />
            <mxPoint x="610" y="610" as="targetPoint" />
            <Array as="points">
              <mxPoint x="750" y="610" />
              <mxPoint x="750" y="640" />
              <mxPoint x="590" y="640" />
              <mxPoint x="590" y="610" />
            </Array>
          </mxGeometry>
        </mxCell>
        <mxCell id="IfH8KStKm8wJUKgaHO1_-61" style="edgeStyle=orthogonalEdgeStyle;rounded=0;orthogonalLoop=1;jettySize=auto;html=1;entryX=0;entryY=0.5;entryDx=0;entryDy=0;exitX=1;exitY=0.5;exitDx=0;exitDy=0;startArrow=classic;startFill=1;" edge="1" parent="1">
          <mxGeometry relative="1" as="geometry">
            <mxPoint x="510" y="970" as="sourcePoint" />
            <mxPoint x="390" y="970" as="targetPoint" />
            <Array as="points">
              <mxPoint x="530" y="970" />
              <mxPoint x="530" y="1000" />
              <mxPoint x="370" y="1000" />
              <mxPoint x="370" y="970" />
            </Array>
          </mxGeometry>
        </mxCell>
        <mxCell id="IfH8KStKm8wJUKgaHO1_-62" style="edgeStyle=orthogonalEdgeStyle;rounded=0;orthogonalLoop=1;jettySize=auto;html=1;entryX=0;entryY=0.5;entryDx=0;entryDy=0;exitX=1;exitY=0.5;exitDx=0;exitDy=0;startArrow=classic;startFill=1;" edge="1" parent="1">
          <mxGeometry relative="1" as="geometry">
            <mxPoint x="510" y="1030" as="sourcePoint" />
            <mxPoint x="390" y="1030" as="targetPoint" />
            <Array as="points">
              <mxPoint x="530" y="1030" />
              <mxPoint x="530" y="1060" />
              <mxPoint x="370" y="1060" />
              <mxPoint x="370" y="1030" />
            </Array>
          </mxGeometry>
        </mxCell>
        <mxCell id="IfH8KStKm8wJUKgaHO1_-76" style="edgeStyle=orthogonalEdgeStyle;rounded=0;orthogonalLoop=1;jettySize=auto;html=1;entryX=0;entryY=0.5;entryDx=0;entryDy=0;exitX=1;exitY=0.5;exitDx=0;exitDy=0;startArrow=classic;startFill=1;" edge="1" parent="1">
          <mxGeometry relative="1" as="geometry">
            <mxPoint x="510" y="310.0000000000002" as="sourcePoint" />
            <mxPoint x="390" y="310.0000000000002" as="targetPoint" />
            <Array as="points">
              <mxPoint x="530" y="310" />
              <mxPoint x="530" y="340" />
              <mxPoint x="370" y="340" />
              <mxPoint x="370" y="310" />
            </Array>
          </mxGeometry>
        </mxCell>
      </root>
    </mxGraphModel>
  </diagram>
</mxfile>
